<svg xmlns="http://www.w3.org/2000/svg" width="320" height="52" viewBox="0 0 320 52" role="img" aria-label="View documentation at flex-fields.mintlify.app">
  <defs>
    <linearGradient id="bg" x1="0%" y1="0%" x2="100%" y2="100%">
      <stop offset="0%" stop-color="#818cf8"/>
      <stop offset="100%" stop-color="#4f46e5"/>
    </linearGradient>
    <filter id="shadow" x="-10%" y="-20%" width="120%" height="160%">
      <feDropShadow dx="0" dy="2" stdDeviation="3" flood-color="#312e81" flood-opacity="0.28"/>
    </filter>
  </defs>
  <rect x="1" y="1" width="318" height="50" rx="14" fill="url(#bg)" filter="url(#shadow)"/>
  <rect x="1" y="1" width="318" height="50" rx="14" fill="none" stroke="#ffffff" stroke-opacity="0.18"/>
  <g transform="translate(22,14)" fill="none" stroke="#ffffff" stroke-width="1.8" stroke-linecap="round" stroke-linejoin="round">
    <path d="M4 2h12a2 2 0 0 1 2 2v14a2 2 0 0 1-2 2H4a2 2 0 0 1-2-2V4a2 2 0 0 1 2-2z"/>
    <path d="M6 7h8M6 11h8M6 15h5"/>
  </g>
  <text x="54" y="22" fill="#ffffff" font-family="system-ui, -apple-system, Segoe UI, sans-serif" font-size="15" font-weight="700" letter-spacing="0.01em">Documentation</text>
  <text x="54" y="38" fill="#e0e7ff" font-family="system-ui, -apple-system, Segoe UI, sans-serif" font-size="11.5" font-weight="500" letter-spacing="0.02em">flex-fields.mintlify.app</text>
  <g transform="translate(286,26)" fill="none" stroke="#ffffff" stroke-width="2" stroke-linecap="round" stroke-linejoin="round">
    <path d="M-6 0h8"/>
    <path d="M2 -4l4 4-4 4"/>
  </g>
</svg>
